# xmcd CD database file
#
# Track frame offsets:
#	150
#	76227
#	139917
#	209302
#
# Disc length: 3969 seconds
#
# Revision: 2
# Processed by: cddbd v1.5.1PL2 Copyright (c) Steve Scherf et al.
# Submitted via: CDex 1.51
#
DISCID=300f7f04
DTITLE=オーケストラ・アンサンブル金沢 - 21世紀へのメッセージ Vol. 1
DYEAR=1994
DGENRE=Contemporary music
TTITLE0=鳥も使いか - 三絃弾き語りを含む合奏 (高橋悠治)
TTITLE1=室内交響曲第2番「アンダーカレント」 (一柳慧)
TTITLE2=生命連鎖 - 室内オーケストラのための (新実徳英)
TTITLE3=鳥のヘテロフォニー (西村朗)
EXTD=YEAR: 1994
EXTT0=
EXTT1=
EXTT2=
EXTT3=
PLAYORDER=
